<?xml version="1.0" standalone="no"?>
<!DOCTYPE svg PUBLIC "-//W3C//DTD SVG 20010904//EN" "http://www.w3.org/TR/2001/REC-SVG-20010904/DTD/svg10.dtd">
<svg
    version="1.0"
    xmlns="http://www.w3.org/2000/svg"
    width="512.000000pt"
    height="512.000000pt"
    viewBox="0 0 512.000000 512.000000"
    preserveAspectRatio="xMidYMid meet">
    <g
        transform="translate(0.000000,512.000000) scale(0.100000,-0.100000)"
        fill="#000000"
        stroke="none">
        <path d="M1335 4609 c-127 -15 -232 -45 -340 -98 -256 -127 -412 -340 -488 -666 -21 -88 -21 -114 -25 -1260 -2 -789 0 -1204 7 -1275 16 -149 45 -261 96 -365 142 -290 402 -466 750 -506 59 -7 500 -9 1290 -7 1109 4 1206 5 1274 22 385 92 625 333 717 717 17 68 18 168 22 1274 2 848 0 1229 -8 1299 -35 305 -182 563 -404 711 -137 91 -268 135 -465 155 -127 12 -2309 12 -2426 -1z m255 -1200 c62 -38 758 -728 780 -773 25 -52 25 -108 1 -161 -20 -45 -728 -747 -784 -777 -42 -24 -123 -23 -167 1 -19 10 -48 37 -65 60 -37 52 -40 126 -7 181 12 19 157 166 323 325 l301 290 -97 93 c-327 311 -509 491 -527 520 -48 77 -13 198 69 241 52 27 128 27 173 0z m2186 -1475 c52 -25 78 -68 78 -131 0 -61 -22 -99 -75 -125 -31 -17 -84 -18 -667 -18 -614 0 -634 1 -672 20 -44 22 -80 80 -80 127 0 42 41 106 80 125 32 17 85 18 668 18 564 0 638 -2 668 -16z" />
    </g>
</svg>
